<svg xmlns="http://www.w3.org/2000/svg" viewBox="0 0 320 285" aria-hidden="true"><g fill="none" stroke="hsl(var(--muted-foreground))" stroke-width="1.5"><path d="M80 51v38M240 51v38M80 125v28h80v25M240 125v28h-80M160 212v27"/></g><rect x="8" y="10" width="144" height="38" rx="4" fill="hsl(var(--muted))" stroke="hsl(var(--border))"/><text x="16" y="25" font-size="12" fill="hsl(var(--foreground))">S-BOARD</text><text x="16" y="40" font-size="11" fill="hsl(var(--muted-foreground))">capacity 150/week</text><rect x="168" y="10" width="144" height="38" rx="4" fill="hsl(var(--muted))" stroke="hsl(var(--border))"/><text x="176" y="25" font-size="12" fill="hsl(var(--foreground))">S-CASE</text><text x="176" y="40" font-size="11" fill="hsl(var(--muted-foreground))">capacity 300/week</text><rect x="8" y="89" width="144" height="38" rx="4" fill="hsl(var(--muted))" stroke="hsl(var(--border))"/><text x="16" y="104" font-size="12" fill="hsl(var(--foreground))">M-BOARD</text><text x="16" y="119" font-size="11" fill="hsl(var(--muted-foreground))">1 unit per product</text><rect x="168" y="89" width="144" height="38" rx="4" fill="hsl(var(--muted))" stroke="hsl(var(--border))"/><text x="176" y="104" font-size="12" fill="hsl(var(--foreground))">M-CASE</text><text x="176" y="119" font-size="11" fill="hsl(var(--muted-foreground))">2 units per product</text><rect x="88" y="178" width="144" height="38" rx="4" fill="hsl(var(--muted))" stroke="hsl(var(--border))"/><text x="96" y="193" font-size="12" fill="hsl(var(--foreground))">P-CONTROL</text><text x="96" y="208" font-size="11" fill="hsl(var(--muted-foreground))">capacity 150/week</text><rect x="88" y="239" width="144" height="38" rx="4" fill="hsl(var(--muted))" stroke="hsl(var(--border))"/><text x="96" y="254" font-size="12" fill="hsl(var(--foreground))">C-ASSEMBLY</text><text x="96" y="269" font-size="11" fill="hsl(var(--muted-foreground))">demand 100/week</text></svg>